<mxfile host="65bd71144e">
    <diagram name="Page-1" id="3xG2T29z0rlvSFvxgJJf">
        <mxGraphModel dx="2094" dy="1705" grid="1" gridSize="10" guides="1" tooltips="1" connect="1" arrows="1" fold="1" page="1" pageScale="1" pageWidth="827" pageHeight="1169" math="0" shadow="0">
            <root>
                <mxCell id="0"/>
                <mxCell id="1" parent="0"/>
                <mxCell id="dKtftk5tmEQ_xPAUpAuJ-1" value="Teacher" style="swimlane;fontStyle=0;childLayout=stackLayout;horizontal=1;startSize=26;fillColor=none;horizontalStack=0;resizeParent=1;resizeParentMax=0;resizeLast=0;collapsible=1;marginBottom=0;" parent="1" vertex="1">
                    <mxGeometry x="30" y="270" width="270" height="156" as="geometry"/>
                </mxCell>
                <mxCell id="dKtftk5tmEQ_xPAUpAuJ-4" value="- id : INT" style="text;strokeColor=none;fillColor=none;align=left;verticalAlign=top;spacingLeft=4;spacingRight=4;overflow=hidden;rotatable=0;points=[[0,0.5],[1,0.5]];portConstraint=eastwest;" parent="dKtftk5tmEQ_xPAUpAuJ-1" vertex="1">
                    <mxGeometry y="26" width="270" height="26" as="geometry"/>
                </mxCell>
                <mxCell id="dKtftk5tmEQ_xPAUpAuJ-2" value="- name: VARCHAR(255)" style="text;strokeColor=none;fillColor=none;align=left;verticalAlign=top;spacingLeft=4;spacingRight=4;overflow=hidden;rotatable=0;points=[[0,0.5],[1,0.5]];portConstraint=eastwest;" parent="dKtftk5tmEQ_xPAUpAuJ-1" vertex="1">
                    <mxGeometry y="52" width="270" height="26" as="geometry"/>
                </mxCell>
                <mxCell id="dKtftk5tmEQ_xPAUpAuJ-5" value="- firstname: VARCHAR(255)" style="text;strokeColor=none;fillColor=none;align=left;verticalAlign=top;spacingLeft=4;spacingRight=4;overflow=hidden;rotatable=0;points=[[0,0.5],[1,0.5]];portConstraint=eastwest;" parent="dKtftk5tmEQ_xPAUpAuJ-1" vertex="1">
                    <mxGeometry y="78" width="270" height="26" as="geometry"/>
                </mxCell>
                <mxCell id="dKtftk5tmEQ_xPAUpAuJ-3" value="- email: VARCHAR(255)" style="text;strokeColor=none;fillColor=none;align=left;verticalAlign=top;spacingLeft=4;spacingRight=4;overflow=hidden;rotatable=0;points=[[0,0.5],[1,0.5]];portConstraint=eastwest;" parent="dKtftk5tmEQ_xPAUpAuJ-1" vertex="1">
                    <mxGeometry y="104" width="270" height="26" as="geometry"/>
                </mxCell>
                <mxCell id="dKtftk5tmEQ_xPAUpAuJ-6" value="- password: VARCHAR(255)" style="text;strokeColor=none;fillColor=none;align=left;verticalAlign=top;spacingLeft=4;spacingRight=4;overflow=hidden;rotatable=0;points=[[0,0.5],[1,0.5]];portConstraint=eastwest;" parent="dKtftk5tmEQ_xPAUpAuJ-1" vertex="1">
                    <mxGeometry y="130" width="270" height="26" as="geometry"/>
                </mxCell>
                <mxCell id="dKtftk5tmEQ_xPAUpAuJ-8" value="Student" style="swimlane;fontStyle=0;childLayout=stackLayout;horizontal=1;startSize=26;fillColor=none;horizontalStack=0;resizeParent=1;resizeParentMax=0;resizeLast=0;collapsible=1;marginBottom=0;" parent="1" vertex="1">
                    <mxGeometry x="855" y="270" width="270" height="182" as="geometry"/>
                </mxCell>
                <mxCell id="dKtftk5tmEQ_xPAUpAuJ-9" value="- id : INT" style="text;strokeColor=none;fillColor=none;align=left;verticalAlign=top;spacingLeft=4;spacingRight=4;overflow=hidden;rotatable=0;points=[[0,0.5],[1,0.5]];portConstraint=eastwest;" parent="dKtftk5tmEQ_xPAUpAuJ-8" vertex="1">
                    <mxGeometry y="26" width="270" height="26" as="geometry"/>
                </mxCell>
                <mxCell id="dKtftk5tmEQ_xPAUpAuJ-10" value="- name: VARCHAR(255)" style="text;strokeColor=none;fillColor=none;align=left;verticalAlign=top;spacingLeft=4;spacingRight=4;overflow=hidden;rotatable=0;points=[[0,0.5],[1,0.5]];portConstraint=eastwest;" parent="dKtftk5tmEQ_xPAUpAuJ-8" vertex="1">
                    <mxGeometry y="52" width="270" height="26" as="geometry"/>
                </mxCell>
                <mxCell id="dKtftk5tmEQ_xPAUpAuJ-11" value="- firstname: VARCHAR(255)" style="text;strokeColor=none;fillColor=none;align=left;verticalAlign=top;spacingLeft=4;spacingRight=4;overflow=hidden;rotatable=0;points=[[0,0.5],[1,0.5]];portConstraint=eastwest;" parent="dKtftk5tmEQ_xPAUpAuJ-8" vertex="1">
                    <mxGeometry y="78" width="270" height="26" as="geometry"/>
                </mxCell>
                <mxCell id="dKtftk5tmEQ_xPAUpAuJ-12" value="- email: VARCHAR(255)" style="text;strokeColor=none;fillColor=none;align=left;verticalAlign=top;spacingLeft=4;spacingRight=4;overflow=hidden;rotatable=0;points=[[0,0.5],[1,0.5]];portConstraint=eastwest;" parent="dKtftk5tmEQ_xPAUpAuJ-8" vertex="1">
                    <mxGeometry y="104" width="270" height="26" as="geometry"/>
                </mxCell>
                <mxCell id="dKtftk5tmEQ_xPAUpAuJ-13" value="- password: VARCHAR(255)" style="text;strokeColor=none;fillColor=none;align=left;verticalAlign=top;spacingLeft=4;spacingRight=4;overflow=hidden;rotatable=0;points=[[0,0.5],[1,0.5]];portConstraint=eastwest;" parent="dKtftk5tmEQ_xPAUpAuJ-8" vertex="1">
                    <mxGeometry y="130" width="270" height="26" as="geometry"/>
                </mxCell>
                <mxCell id="39" value="- classroom : INT" style="text;strokeColor=none;fillColor=none;align=left;verticalAlign=top;spacingLeft=4;spacingRight=4;overflow=hidden;rotatable=0;points=[[0,0.5],[1,0.5]];portConstraint=eastwest;" parent="dKtftk5tmEQ_xPAUpAuJ-8" vertex="1">
                    <mxGeometry y="156" width="270" height="26" as="geometry"/>
                </mxCell>
                <mxCell id="dKtftk5tmEQ_xPAUpAuJ-14" value="courseModule" style="swimlane;fontStyle=0;childLayout=stackLayout;horizontal=1;startSize=26;fillColor=none;horizontalStack=0;resizeParent=1;resizeParentMax=0;resizeLast=0;collapsible=1;marginBottom=0;" parent="1" vertex="1">
                    <mxGeometry x="474" y="57" width="140" height="104" as="geometry"/>
                </mxCell>
                <mxCell id="dKtftk5tmEQ_xPAUpAuJ-15" value="- id : INT" style="text;strokeColor=none;fillColor=none;align=left;verticalAlign=top;spacingLeft=4;spacingRight=4;overflow=hidden;rotatable=0;points=[[0,0.5],[1,0.5]];portConstraint=eastwest;" parent="dKtftk5tmEQ_xPAUpAuJ-14" vertex="1">
                    <mxGeometry y="26" width="140" height="26" as="geometry"/>
                </mxCell>
                <mxCell id="dKtftk5tmEQ_xPAUpAuJ-16" value="- name : VARCHAR(255)" style="text;strokeColor=none;fillColor=none;align=left;verticalAlign=top;spacingLeft=4;spacingRight=4;overflow=hidden;rotatable=0;points=[[0,0.5],[1,0.5]];portConstraint=eastwest;" parent="dKtftk5tmEQ_xPAUpAuJ-14" vertex="1">
                    <mxGeometry y="52" width="140" height="26" as="geometry"/>
                </mxCell>
                <mxCell id="dKtftk5tmEQ_xPAUpAuJ-76" value="" style="endArrow=none;html=1;rounded=0;startArrow=none;" parent="dKtftk5tmEQ_xPAUpAuJ-14" source="32" target="dKtftk5tmEQ_xPAUpAuJ-14" edge="1">
                    <mxGeometry relative="1" as="geometry">
                        <mxPoint x="200" y="330" as="sourcePoint"/>
                        <mxPoint x="360" y="330" as="targetPoint"/>
                    </mxGeometry>
                </mxCell>
                <mxCell id="dKtftk5tmEQ_xPAUpAuJ-79" value="0,N" style="edgeLabel;html=1;align=center;verticalAlign=middle;resizable=0;points=[];" parent="dKtftk5tmEQ_xPAUpAuJ-76" vertex="1" connectable="0">
                    <mxGeometry x="0.8012" y="3" relative="1" as="geometry">
                        <mxPoint x="-7" as="offset"/>
                    </mxGeometry>
                </mxCell>
                <mxCell id="32" value="- classroom : INT" style="text;strokeColor=none;fillColor=none;align=left;verticalAlign=top;spacingLeft=4;spacingRight=4;overflow=hidden;rotatable=0;points=[[0,0.5],[1,0.5]];portConstraint=eastwest;" parent="dKtftk5tmEQ_xPAUpAuJ-14" vertex="1">
                    <mxGeometry y="78" width="140" height="26" as="geometry"/>
                </mxCell>
                <mxCell id="dKtftk5tmEQ_xPAUpAuJ-18" value="ClassroomStudent" style="swimlane;fontStyle=0;childLayout=stackLayout;horizontal=1;startSize=26;fillColor=none;horizontalStack=0;resizeParent=1;resizeParentMax=0;resizeLast=0;collapsible=1;marginBottom=0;" parent="1" vertex="1">
                    <mxGeometry x="920" y="70" width="140" height="130" as="geometry"/>
                </mxCell>
                <mxCell id="62" value="- id : INT" style="text;strokeColor=none;fillColor=none;align=left;verticalAlign=top;spacingLeft=4;spacingRight=4;overflow=hidden;rotatable=0;points=[[0,0.5],[1,0.5]];portConstraint=eastwest;" parent="dKtftk5tmEQ_xPAUpAuJ-18" vertex="1">
                    <mxGeometry y="26" width="140" height="26" as="geometry"/>
                </mxCell>
                <mxCell id="dKtftk5tmEQ_xPAUpAuJ-19" value="+ student INT" style="text;strokeColor=none;fillColor=none;align=left;verticalAlign=top;spacingLeft=4;spacingRight=4;overflow=hidden;rotatable=0;points=[[0,0.5],[1,0.5]];portConstraint=eastwest;" parent="dKtftk5tmEQ_xPAUpAuJ-18" vertex="1">
                    <mxGeometry y="52" width="140" height="26" as="geometry"/>
                </mxCell>
                <mxCell id="dKtftk5tmEQ_xPAUpAuJ-20" value="+ courseModule INT" style="text;strokeColor=none;fillColor=none;align=left;verticalAlign=top;spacingLeft=4;spacingRight=4;overflow=hidden;rotatable=0;points=[[0,0.5],[1,0.5]];portConstraint=eastwest;" parent="dKtftk5tmEQ_xPAUpAuJ-18" vertex="1">
                    <mxGeometry y="78" width="140" height="26" as="geometry"/>
                </mxCell>
                <mxCell id="54" value="+ isValidate bool" style="text;strokeColor=none;fillColor=none;align=left;verticalAlign=top;spacingLeft=4;spacingRight=4;overflow=hidden;rotatable=0;points=[[0,0.5],[1,0.5]];portConstraint=eastwest;" parent="dKtftk5tmEQ_xPAUpAuJ-18" vertex="1">
                    <mxGeometry y="104" width="140" height="26" as="geometry"/>
                </mxCell>
                <mxCell id="dKtftk5tmEQ_xPAUpAuJ-22" value="ClassroomTeacher" style="swimlane;fontStyle=0;childLayout=stackLayout;horizontal=1;startSize=26;fillColor=none;horizontalStack=0;resizeParent=1;resizeParentMax=0;resizeLast=0;collapsible=1;marginBottom=0;" parent="1" vertex="1">
                    <mxGeometry x="95" y="70" width="140" height="104" as="geometry"/>
                </mxCell>
                <mxCell id="60" value="- id : INT" style="text;strokeColor=none;fillColor=none;align=left;verticalAlign=top;spacingLeft=4;spacingRight=4;overflow=hidden;rotatable=0;points=[[0,0.5],[1,0.5]];portConstraint=eastwest;" parent="dKtftk5tmEQ_xPAUpAuJ-22" vertex="1">
                    <mxGeometry y="26" width="140" height="26" as="geometry"/>
                </mxCell>
                <mxCell id="dKtftk5tmEQ_xPAUpAuJ-23" value="+  teacher INT" style="text;strokeColor=none;fillColor=none;align=left;verticalAlign=top;spacingLeft=4;spacingRight=4;overflow=hidden;rotatable=0;points=[[0,0.5],[1,0.5]];portConstraint=eastwest;" parent="dKtftk5tmEQ_xPAUpAuJ-22" vertex="1">
                    <mxGeometry y="52" width="140" height="26" as="geometry"/>
                </mxCell>
                <mxCell id="dKtftk5tmEQ_xPAUpAuJ-24" value="+ courseModule INT" style="text;strokeColor=none;fillColor=none;align=left;verticalAlign=top;spacingLeft=4;spacingRight=4;overflow=hidden;rotatable=0;points=[[0,0.5],[1,0.5]];portConstraint=eastwest;" parent="dKtftk5tmEQ_xPAUpAuJ-22" vertex="1">
                    <mxGeometry y="78" width="140" height="26" as="geometry"/>
                </mxCell>
                <mxCell id="dKtftk5tmEQ_xPAUpAuJ-25" value="task" style="swimlane;fontStyle=0;childLayout=stackLayout;horizontal=1;startSize=26;fillColor=none;horizontalStack=0;resizeParent=1;resizeParentMax=0;resizeLast=0;collapsible=1;marginBottom=0;" parent="1" vertex="1">
                    <mxGeometry x="455" y="528" width="190" height="182" as="geometry"/>
                </mxCell>
                <mxCell id="dKtftk5tmEQ_xPAUpAuJ-26" value="- id : INT" style="text;strokeColor=none;fillColor=none;align=left;verticalAlign=top;spacingLeft=4;spacingRight=4;overflow=hidden;rotatable=0;points=[[0,0.5],[1,0.5]];portConstraint=eastwest;" parent="dKtftk5tmEQ_xPAUpAuJ-25" vertex="1">
                    <mxGeometry y="26" width="190" height="26" as="geometry"/>
                </mxCell>
                <mxCell id="dKtftk5tmEQ_xPAUpAuJ-27" value="- mark : INT" style="text;strokeColor=none;fillColor=none;align=left;verticalAlign=top;spacingLeft=4;spacingRight=4;overflow=hidden;rotatable=0;points=[[0,0.5],[1,0.5]];portConstraint=eastwest;" parent="dKtftk5tmEQ_xPAUpAuJ-25" vertex="1">
                    <mxGeometry y="52" width="190" height="26" as="geometry"/>
                </mxCell>
                <mxCell id="dKtftk5tmEQ_xPAUpAuJ-71" value="- limite: DATE" style="text;strokeColor=none;fillColor=none;align=left;verticalAlign=top;spacingLeft=4;spacingRight=4;overflow=hidden;rotatable=0;points=[[0,0.5],[1,0.5]];portConstraint=eastwest;" parent="dKtftk5tmEQ_xPAUpAuJ-25" vertex="1">
                    <mxGeometry y="78" width="190" height="26" as="geometry"/>
                </mxCell>
                <mxCell id="4" value="- name: VARCHAR(255)" style="text;strokeColor=none;fillColor=none;align=left;verticalAlign=top;spacingLeft=4;spacingRight=4;overflow=hidden;rotatable=0;points=[[0,0.5],[1,0.5]];portConstraint=eastwest;" parent="dKtftk5tmEQ_xPAUpAuJ-25" vertex="1">
                    <mxGeometry y="104" width="190" height="26" as="geometry"/>
                </mxCell>
                <mxCell id="6" value="- description: VARCHAR(255)" style="text;strokeColor=none;fillColor=none;align=left;verticalAlign=top;spacingLeft=4;spacingRight=4;overflow=hidden;rotatable=0;points=[[0,0.5],[1,0.5]];portConstraint=eastwest;" parent="dKtftk5tmEQ_xPAUpAuJ-25" vertex="1">
                    <mxGeometry y="130" width="190" height="26" as="geometry"/>
                </mxCell>
                <mxCell id="2" value="- comment: VARCHAR(255)" style="text;strokeColor=none;fillColor=none;align=left;verticalAlign=top;spacingLeft=4;spacingRight=4;overflow=hidden;rotatable=0;points=[[0,0.5],[1,0.5]];portConstraint=eastwest;" parent="dKtftk5tmEQ_xPAUpAuJ-25" vertex="1">
                    <mxGeometry y="156" width="190" height="26" as="geometry"/>
                </mxCell>
                <mxCell id="dKtftk5tmEQ_xPAUpAuJ-29" value="" style="endArrow=none;html=1;rounded=0;exitX=0.5;exitY=0;exitDx=0;exitDy=0;" parent="1" source="dKtftk5tmEQ_xPAUpAuJ-1" target="dKtftk5tmEQ_xPAUpAuJ-22" edge="1">
                    <mxGeometry relative="1" as="geometry">
                        <mxPoint x="330" y="260" as="sourcePoint"/>
                        <mxPoint x="490" y="260" as="targetPoint"/>
                    </mxGeometry>
                </mxCell>
                <mxCell id="dKtftk5tmEQ_xPAUpAuJ-30" value="0,N" style="edgeLabel;html=1;align=center;verticalAlign=middle;resizable=0;points=[];" parent="dKtftk5tmEQ_xPAUpAuJ-29" vertex="1" connectable="0">
                    <mxGeometry x="-0.4005" y="-2" relative="1" as="geometry">
                        <mxPoint x="8" y="12" as="offset"/>
                    </mxGeometry>
                </mxCell>
                <mxCell id="dKtftk5tmEQ_xPAUpAuJ-33" value="" style="endArrow=none;html=1;rounded=0;" parent="1" source="dKtftk5tmEQ_xPAUpAuJ-14" target="dKtftk5tmEQ_xPAUpAuJ-22" edge="1">
                    <mxGeometry relative="1" as="geometry">
                        <mxPoint x="230" y="270" as="sourcePoint"/>
                        <mxPoint x="230" y="148" as="targetPoint"/>
                    </mxGeometry>
                </mxCell>
                <mxCell id="dKtftk5tmEQ_xPAUpAuJ-34" value="0.N" style="edgeLabel;html=1;align=center;verticalAlign=middle;resizable=0;points=[];" parent="dKtftk5tmEQ_xPAUpAuJ-33" vertex="1" connectable="0">
                    <mxGeometry x="-0.4005" y="-2" relative="1" as="geometry">
                        <mxPoint x="53" y="12" as="offset"/>
                    </mxGeometry>
                </mxCell>
                <mxCell id="dKtftk5tmEQ_xPAUpAuJ-37" value="" style="endArrow=none;html=1;rounded=0;" parent="1" source="dKtftk5tmEQ_xPAUpAuJ-14" target="dKtftk5tmEQ_xPAUpAuJ-18" edge="1">
                    <mxGeometry relative="1" as="geometry">
                        <mxPoint x="630" y="120" as="sourcePoint"/>
                        <mxPoint x="790" y="120" as="targetPoint"/>
                    </mxGeometry>
                </mxCell>
                <mxCell id="dKtftk5tmEQ_xPAUpAuJ-38" value="0.N" style="edgeLabel;html=1;align=center;verticalAlign=middle;resizable=0;points=[];" parent="dKtftk5tmEQ_xPAUpAuJ-37" vertex="1" connectable="0">
                    <mxGeometry x="-0.86" y="-1" relative="1" as="geometry">
                        <mxPoint x="-1" y="20" as="offset"/>
                    </mxGeometry>
                </mxCell>
                <mxCell id="dKtftk5tmEQ_xPAUpAuJ-40" value="" style="endArrow=none;html=1;rounded=0;" parent="1" source="dKtftk5tmEQ_xPAUpAuJ-18" target="dKtftk5tmEQ_xPAUpAuJ-8" edge="1">
                    <mxGeometry relative="1" as="geometry">
                        <mxPoint x="330" y="260" as="sourcePoint"/>
                        <mxPoint x="490" y="260" as="targetPoint"/>
                    </mxGeometry>
                </mxCell>
                <mxCell id="dKtftk5tmEQ_xPAUpAuJ-41" value="0,N" style="edgeLabel;html=1;align=center;verticalAlign=middle;resizable=0;points=[];" parent="dKtftk5tmEQ_xPAUpAuJ-40" vertex="1" connectable="0">
                    <mxGeometry x="0.8132" y="-2" relative="1" as="geometry">
                        <mxPoint x="-18" y="-4" as="offset"/>
                    </mxGeometry>
                </mxCell>
                <mxCell id="dKtftk5tmEQ_xPAUpAuJ-48" value="TaskStudent" style="swimlane;fontStyle=0;childLayout=stackLayout;horizontal=1;startSize=26;fillColor=none;horizontalStack=0;resizeParent=1;resizeParentMax=0;resizeLast=0;collapsible=1;marginBottom=0;" parent="1" vertex="1">
                    <mxGeometry x="880" y="541" width="220" height="182" as="geometry"/>
                </mxCell>
                <mxCell id="57" value="- id : INT" style="text;strokeColor=none;fillColor=none;align=left;verticalAlign=top;spacingLeft=4;spacingRight=4;overflow=hidden;rotatable=0;points=[[0,0.5],[1,0.5]];portConstraint=eastwest;" parent="dKtftk5tmEQ_xPAUpAuJ-48" vertex="1">
                    <mxGeometry y="26" width="220" height="26" as="geometry"/>
                </mxCell>
                <mxCell id="dKtftk5tmEQ_xPAUpAuJ-49" value="+ student: INT" style="text;strokeColor=none;fillColor=none;align=left;verticalAlign=top;spacingLeft=4;spacingRight=4;overflow=hidden;rotatable=0;points=[[0,0.5],[1,0.5]];portConstraint=eastwest;" parent="dKtftk5tmEQ_xPAUpAuJ-48" vertex="1">
                    <mxGeometry y="52" width="220" height="26" as="geometry"/>
                </mxCell>
                <mxCell id="dKtftk5tmEQ_xPAUpAuJ-50" value="+ task: INT " style="text;strokeColor=none;fillColor=none;align=left;verticalAlign=top;spacingLeft=4;spacingRight=4;overflow=hidden;rotatable=0;points=[[0,0.5],[1,0.5]];portConstraint=eastwest;" parent="dKtftk5tmEQ_xPAUpAuJ-48" vertex="1">
                    <mxGeometry y="78" width="220" height="26" as="geometry"/>
                </mxCell>
                <mxCell id="dKtftk5tmEQ_xPAUpAuJ-51" value="+ mark : INT" style="text;strokeColor=none;fillColor=none;align=left;verticalAlign=top;spacingLeft=4;spacingRight=4;overflow=hidden;rotatable=0;points=[[0,0.5],[1,0.5]];portConstraint=eastwest;" parent="dKtftk5tmEQ_xPAUpAuJ-48" vertex="1">
                    <mxGeometry y="104" width="220" height="26" as="geometry"/>
                </mxCell>
                <mxCell id="28" value="+ isFinish : BOOL" style="text;strokeColor=none;fillColor=none;align=left;verticalAlign=top;spacingLeft=4;spacingRight=4;overflow=hidden;rotatable=0;points=[[0,0.5],[1,0.5]];portConstraint=eastwest;" parent="dKtftk5tmEQ_xPAUpAuJ-48" vertex="1">
                    <mxGeometry y="130" width="220" height="26" as="geometry"/>
                </mxCell>
                <mxCell id="55" value="- comment: VARCHAR(255)" style="text;strokeColor=none;fillColor=none;align=left;verticalAlign=top;spacingLeft=4;spacingRight=4;overflow=hidden;rotatable=0;points=[[0,0.5],[1,0.5]];portConstraint=eastwest;" parent="dKtftk5tmEQ_xPAUpAuJ-48" vertex="1">
                    <mxGeometry y="156" width="220" height="26" as="geometry"/>
                </mxCell>
                <mxCell id="dKtftk5tmEQ_xPAUpAuJ-52" value="" style="endArrow=none;html=1;rounded=0;" parent="1" source="dKtftk5tmEQ_xPAUpAuJ-8" target="dKtftk5tmEQ_xPAUpAuJ-48" edge="1">
                    <mxGeometry relative="1" as="geometry">
                        <mxPoint x="680" y="500" as="sourcePoint"/>
                        <mxPoint x="840" y="500" as="targetPoint"/>
                    </mxGeometry>
                </mxCell>
                <mxCell id="dKtftk5tmEQ_xPAUpAuJ-55" value="0,N" style="edgeLabel;html=1;align=center;verticalAlign=middle;resizable=0;points=[];" parent="dKtftk5tmEQ_xPAUpAuJ-52" vertex="1" connectable="0">
                    <mxGeometry x="-0.8156" relative="1" as="geometry">
                        <mxPoint x="-10" y="1" as="offset"/>
                    </mxGeometry>
                </mxCell>
                <mxCell id="dKtftk5tmEQ_xPAUpAuJ-53" value="" style="endArrow=none;html=1;rounded=0;" parent="1" source="dKtftk5tmEQ_xPAUpAuJ-25" target="dKtftk5tmEQ_xPAUpAuJ-48" edge="1">
                    <mxGeometry relative="1" as="geometry">
                        <mxPoint x="680" y="500" as="sourcePoint"/>
                        <mxPoint x="840" y="500" as="targetPoint"/>
                    </mxGeometry>
                </mxCell>
                <mxCell id="dKtftk5tmEQ_xPAUpAuJ-56" value="0,N" style="edgeLabel;html=1;align=center;verticalAlign=middle;resizable=0;points=[];" parent="dKtftk5tmEQ_xPAUpAuJ-53" vertex="1" connectable="0">
                    <mxGeometry x="-0.88" y="-2" relative="1" as="geometry">
                        <mxPoint y="11" as="offset"/>
                    </mxGeometry>
                </mxCell>
                <mxCell id="dKtftk5tmEQ_xPAUpAuJ-62" value="TaskTeacher" style="swimlane;fontStyle=0;childLayout=stackLayout;horizontal=1;startSize=26;fillColor=none;horizontalStack=0;resizeParent=1;resizeParentMax=0;resizeLast=0;collapsible=1;marginBottom=0;" parent="1" vertex="1">
                    <mxGeometry x="95" y="580" width="140" height="104" as="geometry"/>
                </mxCell>
                <mxCell id="59" value="- id : INT" style="text;strokeColor=none;fillColor=none;align=left;verticalAlign=top;spacingLeft=4;spacingRight=4;overflow=hidden;rotatable=0;points=[[0,0.5],[1,0.5]];portConstraint=eastwest;" parent="dKtftk5tmEQ_xPAUpAuJ-62" vertex="1">
                    <mxGeometry y="26" width="140" height="26" as="geometry"/>
                </mxCell>
                <mxCell id="dKtftk5tmEQ_xPAUpAuJ-63" value="+ Teacher : INT" style="text;strokeColor=none;fillColor=none;align=left;verticalAlign=top;spacingLeft=4;spacingRight=4;overflow=hidden;rotatable=0;points=[[0,0.5],[1,0.5]];portConstraint=eastwest;" parent="dKtftk5tmEQ_xPAUpAuJ-62" vertex="1">
                    <mxGeometry y="52" width="140" height="26" as="geometry"/>
                </mxCell>
                <mxCell id="dKtftk5tmEQ_xPAUpAuJ-64" value="+ Task : INT" style="text;strokeColor=none;fillColor=none;align=left;verticalAlign=top;spacingLeft=4;spacingRight=4;overflow=hidden;rotatable=0;points=[[0,0.5],[1,0.5]];portConstraint=eastwest;" parent="dKtftk5tmEQ_xPAUpAuJ-62" vertex="1">
                    <mxGeometry y="78" width="140" height="26" as="geometry"/>
                </mxCell>
                <mxCell id="dKtftk5tmEQ_xPAUpAuJ-66" value="" style="endArrow=none;html=1;rounded=0;" parent="1" source="dKtftk5tmEQ_xPAUpAuJ-62" target="dKtftk5tmEQ_xPAUpAuJ-25" edge="1">
                    <mxGeometry relative="1" as="geometry">
                        <mxPoint x="680" y="400" as="sourcePoint"/>
                        <mxPoint x="840" y="400" as="targetPoint"/>
                    </mxGeometry>
                </mxCell>
                <mxCell id="dKtftk5tmEQ_xPAUpAuJ-70" value="1,N" style="edgeLabel;html=1;align=center;verticalAlign=middle;resizable=0;points=[];" parent="dKtftk5tmEQ_xPAUpAuJ-66" vertex="1" connectable="0">
                    <mxGeometry x="0.8612" y="-1" relative="1" as="geometry">
                        <mxPoint x="-3" y="-14" as="offset"/>
                    </mxGeometry>
                </mxCell>
                <mxCell id="dKtftk5tmEQ_xPAUpAuJ-67" value="" style="endArrow=none;html=1;rounded=0;" parent="1" source="dKtftk5tmEQ_xPAUpAuJ-62" target="dKtftk5tmEQ_xPAUpAuJ-1" edge="1">
                    <mxGeometry relative="1" as="geometry">
                        <mxPoint x="680" y="400" as="sourcePoint"/>
                        <mxPoint x="840" y="400" as="targetPoint"/>
                    </mxGeometry>
                </mxCell>
                <mxCell id="dKtftk5tmEQ_xPAUpAuJ-69" value="0,N" style="edgeLabel;html=1;align=center;verticalAlign=middle;resizable=0;points=[];" parent="dKtftk5tmEQ_xPAUpAuJ-67" vertex="1" connectable="0">
                    <mxGeometry x="0.8312" y="-1" relative="1" as="geometry">
                        <mxPoint x="-16" as="offset"/>
                    </mxGeometry>
                </mxCell>
                <mxCell id="dKtftk5tmEQ_xPAUpAuJ-72" value="TaskClassroom" style="swimlane;fontStyle=0;childLayout=stackLayout;horizontal=1;startSize=26;fillColor=none;horizontalStack=0;resizeParent=1;resizeParentMax=0;resizeLast=0;collapsible=1;marginBottom=0;" parent="1" vertex="1">
                    <mxGeometry x="429" y="309" width="230" height="104" as="geometry"/>
                </mxCell>
                <mxCell id="56" value="- id : INT" style="text;strokeColor=none;fillColor=none;align=left;verticalAlign=top;spacingLeft=4;spacingRight=4;overflow=hidden;rotatable=0;points=[[0,0.5],[1,0.5]];portConstraint=eastwest;" parent="dKtftk5tmEQ_xPAUpAuJ-72" vertex="1">
                    <mxGeometry y="26" width="230" height="26" as="geometry"/>
                </mxCell>
                <mxCell id="dKtftk5tmEQ_xPAUpAuJ-73" value="+courseModule: INT" style="text;strokeColor=none;fillColor=none;align=left;verticalAlign=top;spacingLeft=4;spacingRight=4;overflow=hidden;rotatable=0;points=[[0,0.5],[1,0.5]];portConstraint=eastwest;" parent="dKtftk5tmEQ_xPAUpAuJ-72" vertex="1">
                    <mxGeometry y="52" width="230" height="26" as="geometry"/>
                </mxCell>
                <mxCell id="dKtftk5tmEQ_xPAUpAuJ-74" value="+ Task: INT" style="text;strokeColor=none;fillColor=none;align=left;verticalAlign=top;spacingLeft=4;spacingRight=4;overflow=hidden;rotatable=0;points=[[0,0.5],[1,0.5]];portConstraint=eastwest;" parent="dKtftk5tmEQ_xPAUpAuJ-72" vertex="1">
                    <mxGeometry y="78" width="230" height="26" as="geometry"/>
                </mxCell>
                <mxCell id="dKtftk5tmEQ_xPAUpAuJ-81" value="" style="endArrow=none;html=1;rounded=0;" parent="1" source="dKtftk5tmEQ_xPAUpAuJ-25" target="dKtftk5tmEQ_xPAUpAuJ-72" edge="1">
                    <mxGeometry relative="1" as="geometry">
                        <mxPoint x="680" y="400" as="sourcePoint"/>
                        <mxPoint x="840" y="400" as="targetPoint"/>
                    </mxGeometry>
                </mxCell>
                <mxCell id="dKtftk5tmEQ_xPAUpAuJ-82" value="1,N" style="edgeLabel;html=1;align=center;verticalAlign=middle;resizable=0;points=[];" parent="dKtftk5tmEQ_xPAUpAuJ-81" vertex="1" connectable="0">
                    <mxGeometry x="-0.8" relative="1" as="geometry">
                        <mxPoint x="20" as="offset"/>
                    </mxGeometry>
                </mxCell>
                <mxCell id="dKtftk5tmEQ_xPAUpAuJ-83" value="1,N" style="edgeLabel;html=1;align=center;verticalAlign=middle;resizable=0;points=[];" parent="dKtftk5tmEQ_xPAUpAuJ-81" vertex="1" connectable="0">
                    <mxGeometry x="0.7333" y="2" relative="1" as="geometry">
                        <mxPoint x="-18" as="offset"/>
                    </mxGeometry>
                </mxCell>
                <mxCell id="8" value="Language" style="swimlane;fontStyle=0;childLayout=stackLayout;horizontal=1;startSize=26;fillColor=none;horizontalStack=0;resizeParent=1;resizeParentMax=0;resizeLast=0;collapsible=1;marginBottom=0;" parent="1" vertex="1">
                    <mxGeometry x="-360" y="481" width="270" height="104" as="geometry"/>
                </mxCell>
                <mxCell id="9" value="- id : INT" style="text;strokeColor=none;fillColor=none;align=left;verticalAlign=top;spacingLeft=4;spacingRight=4;overflow=hidden;rotatable=0;points=[[0,0.5],[1,0.5]];portConstraint=eastwest;" parent="8" vertex="1">
                    <mxGeometry y="26" width="270" height="26" as="geometry"/>
                </mxCell>
                <mxCell id="10" value="- name: VARCHAR(255)" style="text;strokeColor=none;fillColor=none;align=left;verticalAlign=top;spacingLeft=4;spacingRight=4;overflow=hidden;rotatable=0;points=[[0,0.5],[1,0.5]];portConstraint=eastwest;" parent="8" vertex="1">
                    <mxGeometry y="52" width="270" height="26" as="geometry"/>
                </mxCell>
                <mxCell id="14" value="- abbrevation: VARCHAR(15)" style="text;strokeColor=none;fillColor=none;align=left;verticalAlign=top;spacingLeft=4;spacingRight=4;overflow=hidden;rotatable=0;points=[[0,0.5],[1,0.5]];portConstraint=eastwest;" parent="8" vertex="1">
                    <mxGeometry y="78" width="270" height="26" as="geometry"/>
                </mxCell>
                <mxCell id="15" value="LanguageTeacher" style="swimlane;fontStyle=0;childLayout=stackLayout;horizontal=1;startSize=26;fillColor=none;horizontalStack=0;resizeParent=1;resizeParentMax=0;resizeLast=0;collapsible=1;marginBottom=0;" parent="1" vertex="1">
                    <mxGeometry x="-360" y="296" width="270" height="104" as="geometry"/>
                </mxCell>
                <mxCell id="63" value="- id : INT" style="text;strokeColor=none;fillColor=none;align=left;verticalAlign=top;spacingLeft=4;spacingRight=4;overflow=hidden;rotatable=0;points=[[0,0.5],[1,0.5]];portConstraint=eastwest;" vertex="1" parent="15">
                    <mxGeometry y="26" width="270" height="26" as="geometry"/>
                </mxCell>
                <mxCell id="16" value="- language: INT" style="text;strokeColor=none;fillColor=none;align=left;verticalAlign=top;spacingLeft=4;spacingRight=4;overflow=hidden;rotatable=0;points=[[0,0.5],[1,0.5]];portConstraint=eastwest;" parent="15" vertex="1">
                    <mxGeometry y="52" width="270" height="26" as="geometry"/>
                </mxCell>
                <mxCell id="17" value="- teacher: INT" style="text;strokeColor=none;fillColor=none;align=left;verticalAlign=top;spacingLeft=4;spacingRight=4;overflow=hidden;rotatable=0;points=[[0,0.5],[1,0.5]];portConstraint=eastwest;" parent="15" vertex="1">
                    <mxGeometry y="78" width="270" height="26" as="geometry"/>
                </mxCell>
                <mxCell id="20" value="" style="endArrow=none;html=1;rounded=0;" parent="1" source="15" target="8" edge="1">
                    <mxGeometry relative="1" as="geometry">
                        <mxPoint x="175" y="280" as="sourcePoint"/>
                        <mxPoint x="175" y="158" as="targetPoint"/>
                    </mxGeometry>
                </mxCell>
                <mxCell id="22" value="1,N" style="edgeLabel;html=1;align=center;verticalAlign=middle;resizable=0;points=[];" parent="20" vertex="1" connectable="0">
                    <mxGeometry x="0.6557" relative="1" as="geometry">
                        <mxPoint x="25" y="-3" as="offset"/>
                    </mxGeometry>
                </mxCell>
                <mxCell id="24" value="" style="endArrow=none;html=1;rounded=0;" parent="1" source="15" target="dKtftk5tmEQ_xPAUpAuJ-1" edge="1">
                    <mxGeometry relative="1" as="geometry">
                        <mxPoint x="-260" y="440" as="sourcePoint"/>
                        <mxPoint x="-370" y="440" as="targetPoint"/>
                    </mxGeometry>
                </mxCell>
                <mxCell id="26" value="1,N" style="edgeLabel;html=1;align=center;verticalAlign=middle;resizable=0;points=[];" parent="24" vertex="1" connectable="0">
                    <mxGeometry x="0.6557" relative="1" as="geometry">
                        <mxPoint x="1" y="-21" as="offset"/>
                    </mxGeometry>
                </mxCell>
                <mxCell id="29" value="classroom" style="swimlane;fontStyle=0;childLayout=stackLayout;horizontal=1;startSize=26;fillColor=none;horizontalStack=0;resizeParent=1;resizeParentMax=0;resizeLast=0;collapsible=1;marginBottom=0;" parent="1" vertex="1">
                    <mxGeometry x="1060" y="-78" width="140" height="78" as="geometry"/>
                </mxCell>
                <mxCell id="30" value="- id : INT" style="text;strokeColor=none;fillColor=none;align=left;verticalAlign=top;spacingLeft=4;spacingRight=4;overflow=hidden;rotatable=0;points=[[0,0.5],[1,0.5]];portConstraint=eastwest;" parent="29" vertex="1">
                    <mxGeometry y="26" width="140" height="26" as="geometry"/>
                </mxCell>
                <mxCell id="31" value="- name : VARCHAR(255)" style="text;strokeColor=none;fillColor=none;align=left;verticalAlign=top;spacingLeft=4;spacingRight=4;overflow=hidden;rotatable=0;points=[[0,0.5],[1,0.5]];portConstraint=eastwest;" parent="29" vertex="1">
                    <mxGeometry y="52" width="140" height="26" as="geometry"/>
                </mxCell>
                <mxCell id="33" value="" style="endArrow=none;html=1;rounded=0;" parent="1" source="dKtftk5tmEQ_xPAUpAuJ-72" target="32" edge="1">
                    <mxGeometry relative="1" as="geometry">
                        <mxPoint x="550" y="309" as="sourcePoint"/>
                        <mxPoint x="550" y="148" as="targetPoint"/>
                    </mxGeometry>
                </mxCell>
                <mxCell id="35" value="1,N" style="edgeLabel;html=1;align=center;verticalAlign=middle;resizable=0;points=[];" parent="33" vertex="1" connectable="0">
                    <mxGeometry x="-0.8509" y="1" relative="1" as="geometry">
                        <mxPoint x="11" as="offset"/>
                    </mxGeometry>
                </mxCell>
                <mxCell id="36" value="" style="endArrow=none;html=1;rounded=0;" parent="1" source="dKtftk5tmEQ_xPAUpAuJ-14" target="29" edge="1">
                    <mxGeometry relative="1" as="geometry">
                        <mxPoint x="624" y="119" as="sourcePoint"/>
                        <mxPoint x="930" y="119" as="targetPoint"/>
                    </mxGeometry>
                </mxCell>
                <mxCell id="37" value="1" style="edgeLabel;html=1;align=center;verticalAlign=middle;resizable=0;points=[];" parent="36" vertex="1" connectable="0">
                    <mxGeometry x="-0.86" y="-1" relative="1" as="geometry">
                        <mxPoint x="-19" y="-12" as="offset"/>
                    </mxGeometry>
                </mxCell>
                <mxCell id="38" value="0,N" style="edgeLabel;html=1;align=center;verticalAlign=middle;resizable=0;points=[];" parent="36" vertex="1" connectable="0">
                    <mxGeometry x="0.82" y="-4" relative="1" as="geometry">
                        <mxPoint x="9" y="-43" as="offset"/>
                    </mxGeometry>
                </mxCell>
                <mxCell id="40" value="" style="endArrow=none;html=1;rounded=0;" parent="1" source="dKtftk5tmEQ_xPAUpAuJ-8" target="29" edge="1">
                    <mxGeometry relative="1" as="geometry">
                        <mxPoint x="624" y="89.7953063885268" as="sourcePoint"/>
                        <mxPoint x="1251" y="-171.7953063885268" as="targetPoint"/>
                        <Array as="points">
                            <mxPoint x="1170" y="160"/>
                        </Array>
                    </mxGeometry>
                </mxCell>
                <mxCell id="41" value="1" style="edgeLabel;html=1;align=center;verticalAlign=middle;resizable=0;points=[];" parent="40" vertex="1" connectable="0">
                    <mxGeometry x="-0.86" y="-1" relative="1" as="geometry">
                        <mxPoint x="-19" y="-12" as="offset"/>
                    </mxGeometry>
                </mxCell>
                <mxCell id="42" value="0,N" style="edgeLabel;html=1;align=center;verticalAlign=middle;resizable=0;points=[];" parent="40" vertex="1" connectable="0">
                    <mxGeometry x="0.82" y="-4" relative="1" as="geometry">
                        <mxPoint x="54" y="4" as="offset"/>
                    </mxGeometry>
                </mxCell>
                <mxCell id="43" value="ClassNameTeacher" style="swimlane;fontStyle=0;childLayout=stackLayout;horizontal=1;startSize=26;fillColor=none;horizontalStack=0;resizeParent=1;resizeParentMax=0;resizeLast=0;collapsible=1;marginBottom=0;" parent="1" vertex="1">
                    <mxGeometry x="95" y="-50" width="140" height="104" as="geometry"/>
                </mxCell>
                <mxCell id="61" value="- id : INT" style="text;strokeColor=none;fillColor=none;align=left;verticalAlign=top;spacingLeft=4;spacingRight=4;overflow=hidden;rotatable=0;points=[[0,0.5],[1,0.5]];portConstraint=eastwest;" parent="43" vertex="1">
                    <mxGeometry y="26" width="140" height="26" as="geometry"/>
                </mxCell>
                <mxCell id="44" value="+  teacher INT" style="text;strokeColor=none;fillColor=none;align=left;verticalAlign=top;spacingLeft=4;spacingRight=4;overflow=hidden;rotatable=0;points=[[0,0.5],[1,0.5]];portConstraint=eastwest;" parent="43" vertex="1">
                    <mxGeometry y="52" width="140" height="26" as="geometry"/>
                </mxCell>
                <mxCell id="45" value="+ classroom INT" style="text;strokeColor=none;fillColor=none;align=left;verticalAlign=top;spacingLeft=4;spacingRight=4;overflow=hidden;rotatable=0;points=[[0,0.5],[1,0.5]];portConstraint=eastwest;" parent="43" vertex="1">
                    <mxGeometry y="78" width="140" height="26" as="geometry"/>
                </mxCell>
                <mxCell id="46" value="" style="endArrow=none;html=1;rounded=0;" parent="1" source="dKtftk5tmEQ_xPAUpAuJ-1" target="43" edge="1">
                    <mxGeometry relative="1" as="geometry">
                        <mxPoint x="175" y="280" as="sourcePoint"/>
                        <mxPoint x="175" y="158" as="targetPoint"/>
                        <Array as="points">
                            <mxPoint x="-30" y="10"/>
                        </Array>
                    </mxGeometry>
                </mxCell>
                <mxCell id="47" value="0,N" style="edgeLabel;html=1;align=center;verticalAlign=middle;resizable=0;points=[];" parent="46" vertex="1" connectable="0">
                    <mxGeometry x="-0.4005" y="-2" relative="1" as="geometry">
                        <mxPoint x="33" y="111" as="offset"/>
                    </mxGeometry>
                </mxCell>
                <mxCell id="51" value="" style="endArrow=none;html=1;rounded=0;" parent="1" source="29" target="43" edge="1">
                    <mxGeometry relative="1" as="geometry">
                        <mxPoint x="870" y="-130" as="sourcePoint"/>
                        <mxPoint x="245" y="119" as="targetPoint"/>
                    </mxGeometry>
                </mxCell>
                <mxCell id="52" value="0.N" style="edgeLabel;html=1;align=center;verticalAlign=middle;resizable=0;points=[];" parent="51" vertex="1" connectable="0">
                    <mxGeometry x="-0.4005" y="-2" relative="1" as="geometry">
                        <mxPoint x="227" y="21" as="offset"/>
                    </mxGeometry>
                </mxCell>
            </root>
        </mxGraphModel>
    </diagram>
</mxfile>